<svg width="32" height="32" viewBox="0 0 32 32" fill="none" xmlns="http://www.w3.org/2000/svg">
<path d="M15.4495 0.00984402C19.6413 -0.138247 23.7256 1.39001 26.8026 4.22397C26.9366 4.34637 27.0735 4.46259 27.2137 4.57786C27.4847 4.80912 27.7079 5.07311 27.9372 5.34481C28.024 5.44338 28.024 5.44338 28.1126 5.54394C30.3111 8.05442 31.6662 11.2765 31.9364 14.6007C31.9404 14.6493 31.9443 14.6978 31.9484 14.7478C32.1221 16.9755 31.8621 19.2282 31.0945 21.3323C31.0743 21.3881 31.0542 21.4439 31.0334 21.5013C30.5747 22.7523 29.9868 23.9695 29.2001 25.0487C29.1693 25.0916 29.1385 25.1345 29.1067 25.1787C28.638 25.829 28.1461 26.437 27.5864 27.0121C27.5478 27.0521 27.5093 27.092 27.4696 27.1332C24.6781 30.0173 20.7555 31.8817 16.7114 31.9907C16.6594 31.9921 16.6074 31.9936 16.5539 31.995C13.9352 32.0571 11.3465 31.5384 8.99358 30.3779C8.94207 30.3528 8.89057 30.3277 8.8375 30.3018C7.44803 29.6178 6.11129 28.7279 5.03416 27.6088C4.91501 27.4878 4.91501 27.4878 4.71372 27.3627C4.71372 27.3164 4.71372 27.2702 4.71372 27.2225C4.67167 27.2039 4.62961 27.1852 4.58628 27.1661C4.31013 27.015 4.1404 26.7612 3.94195 26.5213C3.87279 26.4397 3.80364 26.3582 3.73448 26.2767C1.46346 23.5723 0.100533 20.1039 0.0129013 16.5641C0.010188 16.4825 0.010188 16.4825 0.0074199 16.3992C-0.0751406 13.6938 0.531059 10.9487 1.8371 8.57036C1.88654 8.4777 1.93597 8.38503 1.98537 8.29235C2.52145 7.30067 3.1501 6.39793 3.89782 5.55435C4.01562 5.42053 4.1296 5.2832 4.23822 5.14184C4.27937 5.09312 4.32052 5.0444 4.36292 4.9942C4.40922 4.9942 4.45553 4.9942 4.50324 4.9942C4.52929 4.93346 4.52929 4.93346 4.55586 4.87149C4.6564 4.69062 4.76875 4.56919 4.92421 4.43324C4.97052 4.43324 5.01682 4.43324 5.06453 4.43324C5.08769 4.36382 5.11084 4.2944 5.13469 4.22288C5.3431 4.0285 5.56929 3.85617 5.79359 3.68047C5.9034 3.5942 6.01225 3.50673 6.12107 3.41923C8.50506 1.53336 11.3814 0.404562 14.396 0.0857511C14.5197 0.0719214 14.5197 0.0719214 14.646 0.0578124C14.9137 0.0325537 15.1808 0.0208415 15.4495 0.00984402ZM13.5541 3.66191C13.5033 3.67055 13.4525 3.6792 13.4002 3.6881C11.2439 4.06741 9.30748 5.21179 7.66051 6.60698C7.60932 6.64947 7.55813 6.69195 7.50539 6.73572C7.17162 7.01817 6.88929 7.32489 6.60809 7.65879C6.54867 7.72604 6.48925 7.79329 6.42802 7.86258C5.80263 8.57485 5.29448 9.34332 4.85405 10.1831C4.8176 10.2483 4.78115 10.3135 4.7436 10.3806C3.8539 12.0411 3.43488 13.9289 3.43328 15.8016C3.43323 15.8512 3.43318 15.9009 3.43313 15.9521C3.43793 19.1345 4.5958 22.3556 6.84625 24.6598C8.6522 26.4241 10.7181 27.7132 13.2033 28.2743C13.2937 28.2949 13.2937 28.2949 13.386 28.316C15.171 28.706 17.0375 28.6867 18.8162 28.2743C18.9112 28.2523 18.9112 28.2523 19.0081 28.2299C21.3662 27.6623 23.3734 26.3867 25.0825 24.6938C25.1291 24.6478 25.1758 24.6018 25.2239 24.5545C25.2667 24.5114 25.3095 24.4683 25.3536 24.424C25.411 24.3663 25.411 24.3663 25.4696 24.3075C25.5665 24.2108 25.5665 24.2108 25.5517 24.0671C25.598 24.0671 25.6443 24.0671 25.692 24.0671C25.7811 23.9714 25.7811 23.9714 25.8677 23.8433C25.902 23.7949 25.9363 23.7466 25.9716 23.6968C26.0082 23.644 26.0447 23.5912 26.0823 23.5368C26.12 23.4825 26.1578 23.4282 26.1967 23.3722C28.1622 20.5178 29.0018 17.1892 28.3969 13.7463C27.9815 11.6304 27.0529 9.56437 25.6219 7.93928C25.5715 7.88125 25.5211 7.82322 25.4692 7.76343C23.2683 5.27077 20.2602 3.70509 16.9218 3.45155C15.7835 3.39082 14.675 3.45956 13.5541 3.66191Z" fill="url(#paint0_linear_490_966)"/>
<path d="M11.0143 10.6708C11.0592 10.6705 11.104 10.6702 11.1502 10.6699C11.3001 10.6691 11.4499 10.6692 11.5998 10.6693C11.7074 10.669 11.815 10.6685 11.9226 10.6681C12.2147 10.667 12.5068 10.6667 12.7989 10.6666C12.9815 10.6665 13.1641 10.6662 13.3467 10.6659C13.9839 10.6648 14.6211 10.6642 15.2583 10.6643C15.8519 10.6644 16.4454 10.6631 17.039 10.6611C17.5489 10.6595 18.0589 10.6588 18.5688 10.6589C18.8732 10.6589 19.1776 10.6586 19.482 10.6572C19.7684 10.656 20.0548 10.656 20.3412 10.6569C20.4462 10.6571 20.5511 10.6568 20.656 10.656C21.6403 10.6494 21.6403 10.6494 22.0625 10.9375C22.3156 11.1884 22.4263 11.509 22.4451 11.8608C22.4241 12.2456 22.2888 12.4853 22.0078 12.7461C21.6965 13.0141 21.392 13.0078 20.9924 13.0088C20.9262 13.0091 20.9262 13.0091 20.8587 13.0093C20.7113 13.0099 20.5638 13.01 20.4164 13.0101C20.3105 13.0104 20.2047 13.0107 20.0988 13.011C19.8115 13.0118 19.5242 13.0122 19.2369 13.0125C19.0573 13.0127 18.8777 13.013 18.6982 13.0132C18.1362 13.0141 17.5742 13.0147 17.0122 13.0149C16.3637 13.0152 15.7153 13.0163 15.0669 13.0181C14.5654 13.0195 14.0639 13.0201 13.5624 13.0202C13.263 13.0203 12.9635 13.0206 12.6641 13.0217C12.3825 13.0228 12.1009 13.0229 11.8192 13.0224C11.716 13.0223 11.6128 13.0226 11.5096 13.0232C11.3684 13.024 11.2272 13.0236 11.086 13.023C10.9676 13.0231 10.9676 13.0231 10.8468 13.0232C10.468 12.9835 10.1469 12.8344 9.875 12.5625C9.68764 12.233 9.63006 11.9339 9.6875 11.5625C9.79645 11.231 9.95132 11.0019 10.25 10.8125C10.5104 10.6846 10.7257 10.6715 11.0143 10.6708Z" fill="url(#paint1_linear_490_966)"/>
<path d="M11.0547 18.9912C11.0986 18.991 11.1426 18.9909 11.1879 18.9907C11.3356 18.9901 11.4832 18.99 11.6309 18.9899C11.7366 18.9896 11.8424 18.9893 11.9481 18.989C12.2357 18.9882 12.5233 18.9878 12.8109 18.9875C12.9906 18.9873 13.1703 18.987 13.35 18.9868C13.9124 18.9859 14.4748 18.9853 15.0371 18.9851C15.6861 18.9848 16.3351 18.9837 16.984 18.9819C17.4857 18.9805 17.9875 18.9799 18.4892 18.9798C18.7888 18.9798 19.0883 18.9794 19.3879 18.9783C19.6699 18.9772 19.9519 18.9771 20.2339 18.9777C20.3372 18.9777 20.4405 18.9774 20.5438 18.9768C21.6653 18.9705 21.6653 18.9705 22.064 19.2883C22.3178 19.6075 22.457 19.863 22.4297 20.2813C22.377 20.6423 22.2064 20.8744 21.9375 21.1133C21.644 21.3273 21.42 21.3204 21.06 21.3213C20.9936 21.3216 20.9936 21.3216 20.9257 21.3218C20.7772 21.3224 20.6288 21.3225 20.4803 21.3226C20.3738 21.3229 20.2673 21.3232 20.1609 21.3235C19.8716 21.3243 19.5823 21.3247 19.2931 21.325C19.1123 21.3252 18.9316 21.3255 18.7508 21.3257C18.1852 21.3266 17.6196 21.3272 17.054 21.3274C16.4013 21.3277 15.7485 21.3288 15.0958 21.3306C14.5911 21.332 14.0864 21.3326 13.5817 21.3327C13.2804 21.3328 12.979 21.3331 12.6776 21.3342C12.3941 21.3353 12.1106 21.3354 11.827 21.3349C11.7231 21.3348 11.6192 21.3351 11.5152 21.3357C11.3731 21.3365 11.231 21.3361 11.0888 21.3355C11.0093 21.3356 10.9299 21.3357 10.848 21.3357C10.4685 21.2962 10.1473 21.1473 9.875 20.875C9.68697 20.5443 9.63173 20.2474 9.6875 19.875C9.79479 19.4992 9.98294 19.3094 10.3186 19.1194C10.5723 18.998 10.776 18.9919 11.0547 18.9912Z" fill="url(#paint2_linear_490_966)"/>
<path d="M10.8174 14.8662C10.8627 14.866 10.908 14.8659 10.9547 14.8657C11.107 14.8651 11.2593 14.865 11.4116 14.8649C11.5206 14.8646 11.6296 14.8643 11.7386 14.864C12.0351 14.8632 12.3316 14.8628 12.6281 14.8625C12.8133 14.8623 12.9985 14.862 13.1837 14.8618C13.763 14.8609 14.3424 14.8603 14.9217 14.8601C15.5906 14.8598 16.2596 14.8587 16.9285 14.8569C17.4455 14.8555 17.9624 14.8549 18.4793 14.8548C18.7882 14.8548 19.097 14.8544 19.4058 14.8533C19.6963 14.8522 19.9868 14.8521 20.2773 14.8527C20.3839 14.8527 20.4904 14.8524 20.597 14.8518C20.7426 14.851 20.8882 14.8514 21.0338 14.852C21.1153 14.8519 21.1967 14.8518 21.2806 14.8518C21.6219 14.8879 21.8661 15.0158 22.082 15.2813C22.1127 15.318 22.1434 15.3547 22.175 15.3926C22.357 15.6534 22.3394 15.9457 22.3125 16.25C22.2035 16.6283 22.0072 16.846 21.6875 17.0625C21.4668 17.1361 21.2915 17.1336 21.0585 17.1346C21.0132 17.1349 20.968 17.1352 20.9214 17.1354C20.7694 17.1363 20.6174 17.1367 20.4654 17.1371C20.3566 17.1375 20.2478 17.1381 20.1389 17.1386C19.7812 17.1402 19.4234 17.1412 19.0657 17.1421C18.9425 17.1424 18.8193 17.1428 18.6962 17.1431C18.1838 17.1445 17.6713 17.1456 17.1589 17.1463C16.4247 17.1473 15.6905 17.1494 14.9563 17.153C14.44 17.1554 13.9237 17.1566 13.4074 17.1569C13.0991 17.1572 12.7908 17.1579 12.4824 17.16C12.1922 17.1618 11.9021 17.1622 11.6118 17.1615C11.5055 17.1615 11.3992 17.162 11.2929 17.1631C10.2487 17.1733 10.2487 17.1733 9.875 16.8125C9.60346 16.5131 9.54847 16.2066 9.5625 15.8125C9.62407 15.4457 9.79496 15.2375 10.0801 15.0081C10.3183 14.8516 10.5406 14.8669 10.8174 14.8662Z" fill="url(#paint3_linear_490_966)"/>
<defs>
<linearGradient id="paint0_linear_490_966" x1="3.17159" y1="1.44657e-06" x2="34.3605" y2="26.4367" gradientUnits="userSpaceOnUse">
<stop stop-color="#4D35FA"/>
<stop offset="1" stop-color="#AF35FA"/>
</linearGradient>
<linearGradient id="paint1_linear_490_966" x1="3.17159" y1="1.44657e-06" x2="34.3605" y2="26.4367" gradientUnits="userSpaceOnUse">
<stop stop-color="#4D35FA"/>
<stop offset="1" stop-color="#AF35FA"/>
</linearGradient>
<linearGradient id="paint2_linear_490_966" x1="3.17159" y1="1.44657e-06" x2="34.3605" y2="26.4367" gradientUnits="userSpaceOnUse">
<stop stop-color="#4D35FA"/>
<stop offset="1" stop-color="#AF35FA"/>
</linearGradient>
<linearGradient id="paint3_linear_490_966" x1="3.17159" y1="1.44657e-06" x2="34.3605" y2="26.4367" gradientUnits="userSpaceOnUse">
<stop stop-color="#4D35FA"/>
<stop offset="1" stop-color="#AF35FA"/>
</linearGradient>
</defs>
</svg>
